<?xml version="1.0" encoding="UTF-8"?>
<!DOCTYPE svg PUBLIC "-//W3C//DTD SVG 1.1//EN" "http://www.w3.org/Graphics/SVG/1.1/DTD/svg11.dtd">
<!-- Creator: CorelDRAW X6 -->
<svg xmlns="http://www.w3.org/2000/svg" xml:space="preserve" width="1683px" height="1683px" version="1.1" style="shape-rendering:geometricPrecision; text-rendering:geometricPrecision; image-rendering:optimizeQuality; fill-rule:evenodd; clip-rule:evenodd"
viewBox="0 0 434 434"
 xmlns:xlink="http://www.w3.org/1999/xlink">
 <defs>
  <style type="text/css">
   <![CDATA[
    .fil5 {fill:none}
    .fil3 {fill:#004975}
    .fil1 {fill:#00598E}
    .fil2 {fill:#0073BA}
    .fil4 {fill:#93C5E4}
    .fil0 {fill:white}
   ]]>
  </style>
 </defs>
 <g id="Layer_x0020_1">
  <metadata id="CorelCorpID_0Corel-Layer"/>
  <g id="_192103728">
   <rect class="fil0" width="434" height="434"/>
   <g id="drupal-icon.svg">
    <g>
     <g>
      <path class="fil1" d="M311 81c-22,-14 -43,-19 -64,-33 -13,-9 -31,-30 -46,-47 -3,29 -12,40 -22,49 -21,17 -35,22 -53,32 -15,8 -99,58 -99,165 0,107 90,186 190,186 100,0 187,-73 187,-183 0,-110 -81,-160 -95,-168l0 0z"/>
      <path class="fil0" d="M277 339c7,0 14,0 19,4 5,3 8,11 10,15 2,4 0,7 -3,8 -3,2 -3,1 -6,-5 -3,-5 -5,-11 -20,-11 -15,0 -19,5 -26,11 -7,6 -10,8 -12,5 -2,-3 -2,-7 3,-11 5,-4 12,-11 19,-14 7,-3 11,-2 17,-2z"/>
      <path class="fil0" d="M208 387c8,7 21,12 47,12 27,0 45,-7 54,-14 4,-3 5,0 6,1 0,2 1,4 -2,7 -2,2 -21,15 -44,17 -22,2 -53,3 -71,-13 -3,-3 -2,-7 0,-9 2,-2 4,-3 6,-3 2,0 2,0 3,1l0 0z"/>
      <path class="fil2" d="M106 355c32,0 37,-6 65,-18 150,-67 178,-129 184,-143 5,-14 13,-37 5,-62 -2,-5 -3,-9 -4,-12 -20,-22 -40,-35 -46,-38 -22,-14 -43,-19 -64,-33 -13,-8 -31,-30 -46,-47 -3,29 -11,41 -22,49 -21,17 -35,22 -53,32 -15,8 -99,58 -99,165 0,34 9,66 25,92l4 0c9,8 22,17 49,17l0 0z"/>
      <path class="fil3" d="M311 81c-22,-14 -43,-19 -64,-33 -13,-8 -31,-30 -46,-47 -3,29 -11,41 -22,49 -21,17 -35,22 -53,32 -15,8 -99,58 -99,165 0,34 9,66 25,92 34,57 97,94 165,94 100,0 187,-73 187,-183 0,-60 -25,-103 -49,-130 -20,-22 -40,-35 -46,-38l0 0zm51 49c27,34 41,74 41,120 0,26 -5,51 -15,74 -9,22 -23,41 -40,57 -34,32 -80,49 -129,49 -24,0 -48,-5 -71,-14 -22,-9 -42,-22 -60,-38 -37,-35 -57,-81 -57,-131 0,-45 14,-84 43,-118 22,-26 45,-40 54,-45 4,-2 9,-5 13,-7 13,-6 24,-13 41,-25 9,-7 18,-17 22,-44 14,16 30,35 42,43 11,7 22,12 33,17 10,5 21,9 31,16l0 0c30,19 46,39 52,46l0 0z"/>
      <path class="fil4" d="M203 9c6,17 5,26 5,30 0,4 -2,14 -9,19 -3,2 -4,4 -4,4 0,2 4,3 4,7 0,5 -2,14 -24,36 -22,22 -54,42 -78,54 -25,12 -36,11 -39,5 -3,-6 1,-19 17,-36 15,-17 64,-42 64,-42l61 -42 3 -16m1 -18l0 0 0 0z"/>
      <path class="fil0" d="M203 9c-4,27 -12,36 -23,44 -19,14 -37,23 -41,25 -11,5 -50,27 -70,58 -6,10 0,13 1,14 1,1 15,3 46,-16 30,-18 44,-29 61,-47 9,-10 10,-15 10,-17 0,-3 -2,-4 -5,-5 -2,0 -2,-1 0,-3 2,-1 11,-5 13,-7 2,-2 12,-8 12,-19 0,-11 0,-18 -3,-28l0 0z"/>
      <path class="fil0" d="M110 311c0,-32 31,-63 69,-63 49,0 82,48 107,48 21,0 61,-41 80,-41 21,0 27,22 27,35 0,13 -4,36 -14,51 -10,15 -16,20 -28,19 -15,-1 -45,-48 -64,-49 -24,-1 -76,50 -118,50 -25,0 -32,-4 -41,-9 -12,-9 -19,-22 -18,-40z"/>
      <path class="fil5" d="M360 132c8,25 0,48 -5,62 -5,14 -33,76 -184,143 -28,12 -34,18 -65,18 -27,0 -40,-9 -49,-17l-4 0c34,57 97,94 165,94 100,0 187,-73 187,-183 0,-60 -25,-103 -49,-130 1,3 2,7 4,12l0 0z"/>
     </g>
    </g>
   </g>
  </g>
 </g>
</svg>
